<svg xmlns="http://www.w3.org/2000/svg" viewBox="0 0 128.4764 34.5335" height="130.5202" width="485.5801">
  <path d="M42.7546 27.9223c-.8714 0-1.5801-.7082-1.5801-1.5795V14.2655c0-.8713.7087-1.5795 1.58-1.5795.871 0 1.5805.7082 1.5805 1.5795v12.0773c0 .8713-.7094 1.5795-1.5804 1.5795m19.5858 0c-.871 0-1.5793-.7082-1.5793-1.5795V19.43c0-.5425-.0928-1.0469-.2749-1.5002-.1767-.397-.4381-.7675-.7814-1.1117-.3175-.3177-.6843-.5526-1.1542-.7402-.5116-.2047-1.0023-.233-1.4157-.233H50.094v10.4978c0 .8713-.7084 1.5795-1.5797 1.5795-.8714 0-1.5794-.7082-1.5794-1.5795V14.2246c0-.2122.0353-.4289.1072-.6447.0886-.1302.1986-.314.3359-.4506.1721-.173.3344-.2832.4935-.336a2.0178 2.0178 0 0 1 .6428-.1073h8.6624c.4371 0 .924.04 1.4485.1201.5726.1347 1.0679.2995 1.534.5153.5308.2649 1.0043.5536 1.4385.8795.397.3249.7984.7538 1.1826 1.2654.3704.5352.6325 1.087.8202 1.7261.2102.67.3196 1.442.3196 2.2377v6.9127c0 .8713-.7084 1.5795-1.5798 1.5795m36.2922.0155c-.4534 0-.9384-.052-1.444-.1557-.5069-.1002-1.0149-.2676-1.511-.4998-.4952-.2285-.9835-.5225-1.4512-.8757-.458-.3496-.863-.7757-1.2009-1.2647-.3432-.4978-.6237-1.0814-.8347-1.7342-.2095-.6528-.315-1.403-.315-2.227v-6.9326c0-.8721.709-1.5813 1.5812-1.5813.873 0 1.5825.7092 1.5825 1.5813v6.9327c0 .5462.0953 1.0452.283 1.4822.19.4342.4508.8139.7757 1.1325.322.3122.7101.5563 1.1525.7284.4417.1664.9158.2502 1.4122.2502h7.0464v-10.526c0-.8721.709-1.5813 1.5811-1.5813.8732 0 1.5826.7092 1.5826 1.5813V26.342c0 .2303-.0402.4398-.1231.64a1.5128 1.5128 0 0 1-.3323.5008 1.5644 1.5644 0 0 1-.4978.335c-.1912.081-.3927.1201-.6146.1201h-8.6726m16.0105-5.0492c0 .5664.1848 1.0289.5481 1.3738.357.3397.8068.5116 1.3374.5116h6.9155c.5761 0 1.0379-.1793 1.372-.5316.3312-.3496.4995-.8048.4995-1.3538v-5.1893c0-.5735-.1803-1.035-.5334-1.3737-.3485-.3287-.7983-.4953-1.338-.4953h-8.8012zm1.8866 5.0537c-.337 0-.7013-.0401-1.0816-.1212a5.3232 5.3232 0 0 1-1.1328-.3705c-.3623-.1565-.7218-.3714-1.076-.6437a4.1101 4.1101 0 0 1-.8967-.9449c-.264-.3769-.4689-.8002-.628-1.2973-.1594-.4871-.2395-1.0506-.2395-1.6769V8.1733c0-.8731.709-1.5822 1.5811-1.5822.8724 0 1.5815.7091 1.5815 1.5822v4.4926h8.8054c.3369 0 .701.04 1.0816.121a5.3176 5.3176 0 0 1 1.1324.3706 4.7324 4.7324 0 0 1 1.0707.6392c.3376.2585.6364.5762.8922.9495.2575.3668.468.7994.629 1.2891.1502.4943.2275 1.057.2275 1.6641v5.1885c0 .3377-.0399.701-.121 1.0806-.0635.3523-.182.7228-.3623 1.1406a4.9694 4.9694 0 0 1-.6474 1.0643 4.311 4.311 0 0 1-.9422.9041c-.3803.2595-.8058.4653-1.2965.6263-.4932.1603-1.0375.2386-1.664.2386h-6.9134" fill="#29323e"/>
  <path d="M68.101 27.9223c-.942 0-1.7089-.7658-1.7089-1.7077 0-.942.767-1.7078 1.7089-1.7078.9419 0 1.7077.7658 1.7077 1.7078s-.7658 1.7077-1.7077 1.7077" fill="#5dc8b6"/>
  <path d="M87.6812 27.9205c-.4227 0-.8202-.1639-1.119-.4635a1.5698 1.5698 0 0 1-.4615-1.1188l.0081-8.6605c0-.5872-.1584-1.0434-.4706-1.3556-.3086-.3087-.7965-.4716-1.4104-.4716h-8.7834V26.34c0 .8713-.7091 1.5805-1.5805 1.5805-.8727 0-1.5822-.7092-1.5822-1.5805V8.1733c0-.8721.7095-1.5814 1.5815-1.5814.872 0 1.5812.7093 1.5812 1.5814v4.5145h8.7834c.349 0 .7102.0391 1.1053.1201.3605.072.755.195 1.1426.355.285.1212.5818.3133.8957.5162l.1814.1166c.2995.2421.5626.5326.853.9522.2596.326.4487.7166.6265 1.2829.1492.4387.2293 1.0205.2293 1.6469V26.34c0 .8713-.709 1.5805-1.5804 1.5805" fill="#29323e"/>
  <path d="M18.0846 17.2824c0 1.4202-1.1514 2.5715-2.5715 2.5715-1.4202 0-2.5715-1.1513-2.5715-2.5715s1.1513-2.5715 2.5715-2.5715c1.4201 0 2.5715 1.1513 2.5715 2.5715zm-5.002-9.9021c.3136.251.784 0 .7684-.4078l.0155-2.3206c0-.298.2353-.5644.549-.5489.2978 0 .5645.251.5488.5489l-.0157 7.793v1.147c-1.7975.275-3.183 1.8174-3.183 3.6905 0 2.0664 1.6812 3.7475 3.7475 3.7475 2.0664 0 3.7475-1.6811 3.7475-3.7475 0-1.8731-1.3856-3.4157-3.183-3.6905V8.18c2.258-.3136 3.9515-2.4618 3.4654-4.9236-.2824-1.521-1.4897-2.7753-2.995-3.136-2.697-.643-5.112 1.3797-5.1275 3.9827 0 1.3486.6586 2.5403 1.662 3.2773" fill="#5dc8b6"/>
  <path d="M2.0594 14.2326c1.176.6742 2.5401.7057 3.6847.2195.3765-.1725.392-.7057.0314-.8938l-2.007-1.1603c-.2509-.1568-.3764-.5018-.2038-.7527.141-.2666.5017-.3607.7526-.2195l5.2843 3.0734c-.4077.8467-.6272 1.7875-.6272 2.7911 0 .9878.2195 1.9286.6272 2.7596L7.375 21.3515c-1.427-1.8033-4.124-2.164-6.0056-.5331-1.176 1.0191-1.6465 2.6813-1.2075 4.171.7997 2.6498 3.7633 3.7317 6.0057 2.4304 1.176-.6742 1.8817-1.8503 2.0227-3.0734.047-.4078-.392-.69-.7369-.4705l-2.0228 1.1448c-.251.1568-.6116.0941-.7527-.1883-.1568-.2665-.0627-.6114.1881-.7525l5.2844-3.0577c1.0819 1.5366 2.8225 2.6028 4.7982 2.7597v2.5716c-2.2737.3135-3.9514 2.4774-3.481 4.9236.2978 1.521 1.5053 2.7754 2.9948 3.1361 2.697.6429 5.1118-1.38 5.1276-3.9828 0-1.3328-.643-2.5403-1.6464-3.2772-.3293-.2352-.7841 0-.7841.3919l-.0157 2.3365c0 .2979-.2195.5646-.5332.5488-.2978 0-.5644-.2666-.5644-.5488l.0157-6.0997c1.9914-.157 3.732-1.2231 4.8139-2.7597l2.211 1.2858a4.1513 4.1513 0 0 0 2.54 5.4723c1.4584.502 3.1518.0941 4.2025-1.0347 1.9129-1.9916 1.3798-5.1119-.8625-6.4291-1.176-.6586-2.5403-.7056-3.6849-.2038-.3763.157-.392.69-.0314.878l2.0071 1.176c.251.1413.3764.4705.204.7372-.157.2665-.5018.3606-.7528.2195l-5.2843-3.0735c.4078-.831.6273-1.7718.6273-2.7596 0-.988-.2195-1.9287-.6273-2.7755l2.2424-1.3014c1.3955 1.8031 4.0926 2.1795 5.9897.5487 1.1762-1.0035 1.6622-2.6814 1.2075-4.1553-.784-2.6656-3.7319-3.7475-5.9898-2.4618-1.1761.6743-1.8817 1.8346-2.0228 3.0733-.0471.4078.392.69.737.4705l2.0228-1.1447c.2508-.141.5958-.0783.7525.204.1413.2507.047.6115-.2038.7525l-5.3 3.042-1.0191.5801c.2195.298.4076.6273.5644.9722.298.6587.4705 1.4113.4705 2.1954 0 .7682-.1726 1.5052-.4705 2.1795-.141.345-.3292.6586-.5644.9565-.8625 1.2074-2.2266 2.0227-3.779 2.1796-.1881.0158-.3607.0313-.5488.0313-.1882 0-.3763-.0155-.5645-.0313-1.5524-.157-2.901-.9879-3.7633-2.1796a4.0342 4.0342 0 0 1-.5644-.9722c-.3137-.6586-.4705-1.3956-.4705-2.1638 0-.7841.1725-1.5367.4705-2.1954.1568-.3449.3449-.6742.5644-.9722l-1.0192-.5958-2.2424-1.2857c.8624-2.1168-.1568-4.6571-2.5244-5.4725-1.4584-.5017-3.1518-.0941-4.2024 1.035-1.913 1.9915-1.3799 5.1117.8625 6.4289" fill="#29323e"/>
</svg>
